<svg id="Layer_1" data-name="Layer 1" xmlns="http://www.w3.org/2000/svg" viewBox="0 0 1152.67 265.52"><defs><style>.cls-1{fill:#3e90f7;}</style></defs><title>Untitled-2</title><path class="cls-1" d="M537.71,578.84h44.46l8.61,27.33h25.67L573,479.47H547l-43.6,126.7h25.67Zm22-69.7h.52l15.67,49.78H544Z" transform="translate(-205.33 -460.42)"/><path class="cls-1" d="M657.26,608a29.41,29.41,0,0,0,15.4-4,31.71,31.71,0,0,0,11.06-11.4L686,606.17h21.66V512h-25.4v68.64a17.65,17.65,0,0,1-7.14,5.8,25.23,25.23,0,0,1-10.44,2q-6.79,0-10.27-4.49t-3.48-14.78V512H625.59v56.83q0,20.1,8.4,29.62T657.26,608Z" transform="translate(-205.33 -460.42)"/><path class="cls-1" d="M768.77,587.76a22.66,22.66,0,0,1-3.44.22,8.05,8.05,0,0,1-6.09-2.35Q757,583.27,757,577.8V529.85h15.84V512H757V489H731.57V512H717.82v17.84h13.75v48q0,15.68,7.09,22.89T758.9,608a45.46,45.46,0,0,0,7.91-.65,51.86,51.86,0,0,0,7.49-2L772.12,587A28.69,28.69,0,0,1,768.77,587.76Z" transform="translate(-205.33 -460.42)"/><path class="cls-1" d="M839,510.28a28.64,28.64,0,0,0-14.27,3.61,32.15,32.15,0,0,0-10.88,10.05V470.42H788.39V606.17H813.8V537a17.66,17.66,0,0,1,6.61-5.28,21.55,21.55,0,0,1,9.23-1.88q7.65,0,11.53,4.58T845,550v56.17h25.41V550.3q0-20.44-8.4-30.24T839,510.28Z" transform="translate(-205.33 -460.42)"/><path class="cls-1" d="M929,510.28q-19.41-.09-30.93,13.48t-11.53,34.55v3.48q0,20.1,12.18,33.15t32.54,13a65.21,65.21,0,0,0,20.71-3.1,47,47,0,0,0,15-7.82l-6.87-15.7A64.81,64.81,0,0,1,948,586.72a49,49,0,0,1-14,1.69q-9.5,0-15-6t-6.22-15.25l.17-.52h56.21V552.82q0-19.58-10.53-31.06T929,510.28Zm15.22,39.59H913.08l-.26-.44q1-8.79,5-14.18a13.23,13.23,0,0,1,11.14-5.4q7.65,0,11.44,4.83t3.78,12.93Z" transform="translate(-205.33 -460.42)"/><path class="cls-1" d="M1057.53,519.24q-8-9-22.28-9a30,30,0,0,0-15.4,4,34.47,34.47,0,0,0-11.57,11.22L1007.15,512H983.48v94.16h25.41V537.7a18.57,18.57,0,0,1,6.7-5.8,19.61,19.61,0,0,1,9.05-2q7.74,0,11.57,4T1040,547.3v58.87h25.49V547.34Q1065.53,528.2,1057.53,519.24Z" transform="translate(-205.33 -460.42)"/><polygon class="cls-1" points="985.69 112.41 985.16 112.41 952.88 19.05 919.73 19.05 919.73 145.74 945.14 145.74 945.14 107.98 942.7 52.38 943.22 52.29 976.99 145.74 994.04 145.74 1027.98 51.94 1028.5 52.03 1026.06 107.98 1026.06 145.74 1051.47 145.74 1051.47 19.05 1018.23 19.05 985.69 112.41"/><path class="cls-1" d="M1317.89,510.28q-19.41-.09-30.94,13.48t-11.53,34.55v3.48q0,20.1,12.19,33.15t32.54,13a65.21,65.21,0,0,0,20.71-3.1,47.1,47.1,0,0,0,15.05-7.82l-6.87-15.7a64.81,64.81,0,0,1-12.18,5.35,49,49,0,0,1-14,1.69q-9.49,0-15-6t-6.22-15.25l.17-.52H1358V552.82q0-19.58-10.53-31.06T1317.89,510.28Zm15.22,39.59H1302l-.26-.44q1-8.79,5-14.18a13.22,13.22,0,0,1,11.14-5.4q7.65,0,11.44,4.83t3.78,12.93Z" transform="translate(-205.33 -460.42)"/><path class="cls-1" d="M328,460.42A123.79,123.79,0,0,0,302.89,463a122.16,122.16,0,0,0-24,7.66,11,11,0,0,0,8.79,20.15h0a99.64,99.64,0,0,1,19.67-6.28A101.37,101.37,0,0,1,328,482.41a100.82,100.82,0,0,1,100.7,100.7v.15h22v-.15A122.83,122.83,0,0,0,328,460.42Z" transform="translate(-205.33 -460.42)"/><path class="cls-1" d="M428.72,706.56H413.47V583.11a84.79,84.79,0,0,0-6-31.59,11.58,11.58,0,0,0-4.88-5.84A11,11,0,0,0,393,545l0,0a10.22,10.22,0,0,0-3.83,2.58,11.08,11.08,0,0,0-2.2,11.72,63.08,63.08,0,0,1,4.61,23.78V706.56H379l-9.55-74.79a12.75,12.75,0,1,0-5.39,0l-9.55,74.79H301.78V583.11a26.24,26.24,0,0,1,52.48-.21,11.41,11.41,0,0,0,2.8,7.54,11,11,0,0,0,16.23.17,11.43,11.43,0,0,0,2.95-7.94,48.22,48.22,0,0,0-96.44.44V706.56H264.55V619.32h-22v87.24H227.32V583.11a100.54,100.54,0,0,1,25.4-66.87,11.56,11.56,0,0,0,3-6.79,11,11,0,0,0-3.64-9,11,11,0,0,0-15.52.86,122.49,122.49,0,0,0-31.25,81.8V724.73H450.7V597.06h-22Z" transform="translate(-205.33 -460.42)"/><path class="cls-1" d="M242.56,601.72a10.9,10.9,0,0,0,.3,2.5h21.39a10.9,10.9,0,0,0,.3-2.5V583.11a63.4,63.4,0,0,1,103.17-49.52,11,11,0,0,0,13.77-17.14,85.49,85.49,0,0,0-138.93,66.66Z" transform="translate(-205.33 -460.42)"/><path class="cls-1" d="M540.43,713.35H520.12l-3.87,11.81H503.94l20.93-57.31H535.6l21,57.31H544.33Zm-17.18-9.57h14l-7.06-21.45Z" transform="translate(-205.33 -460.42)"/><path class="cls-1" d="M585.77,720.83c-2.76,3.41-6.56,5.11-11.43,5.11q-6.72,0-10.26-3.93t-3.61-11.54v-27.9h11.17v27.54q0,6.66,5.94,6.66,5.68,0,7.8-4V682.57h11.2v42.59h-10.5Z" transform="translate(-205.33 -460.42)"/><path class="cls-1" d="M618.36,672.1v10.47h7.15v8.34h-7.15v21.26a5.15,5.15,0,0,0,.89,3.38c.59.68,1.73,1,3.4,1a17.74,17.74,0,0,0,3.28-.27v8.62a22.65,22.65,0,0,1-6.76,1q-11.73,0-12-12.08v-23h-6.1v-8.34h6.1V672.1Z" transform="translate(-205.33 -460.42)"/><path class="cls-1" d="M642.62,687.21a13.83,13.83,0,0,1,11.16-5.43q13.59,0,13.78,16.1v27.28H656.4v-27q0-3.66-1.54-5.41T649.72,691a7.55,7.55,0,0,0-7.1,3.86v30.27H631.46V664.7h11.16Z" transform="translate(-205.33 -460.42)"/><path class="cls-1" d="M695.22,725.94q-9.19,0-15-5.74t-5.77-15.32v-1.1a26.17,26.17,0,0,1,2.43-11.47,18.06,18.06,0,0,1,6.89-7.79A19,19,0,0,1,694,681.78q8.58,0,13.5,5.51t4.92,15.63v4.64H685.79a10.62,10.62,0,0,0,3.27,6.69,9.74,9.74,0,0,0,6.89,2.52A12,12,0,0,0,706,712l5.48,6.26a16.94,16.94,0,0,1-6.79,5.65A22,22,0,0,1,695.22,725.94Zm-1.28-35a6.92,6.92,0,0,0-5.39,2.29,12,12,0,0,0-2.64,6.57h15.52v-.91a8.58,8.58,0,0,0-2-5.87A7.12,7.12,0,0,0,693.94,691Z" transform="translate(-205.33 -460.42)"/><path class="cls-1" d="M729,682.57l.35,4.92a14.46,14.46,0,0,1,12-5.71q6.63,0,9.88,4t3.32,11.89v27.52H743.41V697.92q0-3.63-1.54-5.26T736.73,691a7.64,7.64,0,0,0-7.06,4.09v30H718.5V682.57Z" transform="translate(-205.33 -460.42)"/><path class="cls-1" d="M776.39,672.1v10.47h7.15v8.34h-7.15v21.26a5.15,5.15,0,0,0,.89,3.38c.59.68,1.73,1,3.4,1a17.74,17.74,0,0,0,3.28-.27v8.62a22.63,22.63,0,0,1-6.75,1q-11.75,0-12-12.08v-23h-6.1v-8.34h6.1V672.1Z" transform="translate(-205.33 -460.42)"/><path class="cls-1" d="M789.68,671.55a5.68,5.68,0,0,1,1.68-4.22,7.14,7.14,0,0,1,9.13,0,6.1,6.1,0,0,1,0,8.47,7.06,7.06,0,0,1-9.07,0A5.62,5.62,0,0,1,789.68,671.55Zm11.86,53.61h-11.2V682.57h11.2Z" transform="translate(-205.33 -460.42)"/><path class="cls-1" d="M828.1,716.77a7.24,7.24,0,0,0,5-1.73,6.12,6.12,0,0,0,2-4.61H845.6a14.87,14.87,0,0,1-2.32,7.94A15.44,15.44,0,0,1,837,724a19.23,19.23,0,0,1-8.74,2q-9,0-14.14-5.8t-5.17-16v-.75q0-9.84,5.13-15.71t14.1-5.86q7.85,0,12.57,4.55t4.81,12.1H835.13a7.86,7.86,0,0,0-2-5.4A6.59,6.59,0,0,0,828,691a6.68,6.68,0,0,0-5.89,2.9q-2,2.89-2,9.4v1.18c0,4.39.66,7.55,2,9.46A6.75,6.75,0,0,0,828.1,716.77Z" transform="translate(-205.33 -460.42)"/><path class="cls-1" d="M876.19,725.16a12.7,12.7,0,0,1-1.12-3.82,13.4,13.4,0,0,1-10.55,4.6,14.63,14.63,0,0,1-10.17-3.62,11.74,11.74,0,0,1-4-9.13q0-6.77,4.93-10.39t14.23-3.66h5.13V696.7a7.12,7.12,0,0,0-1.48-4.73,5.82,5.82,0,0,0-4.7-1.77,6.55,6.55,0,0,0-4.42,1.38,4.72,4.72,0,0,0-1.6,3.78H851.24a11.59,11.59,0,0,1,2.24-6.85,14.85,14.85,0,0,1,6.33-4.94,22.76,22.76,0,0,1,9.19-1.79q7.72,0,12.26,4t4.54,11.12v18.45c0,4.05.58,7.1,1.66,9.18v.67ZM867,717.24a9.43,9.43,0,0,0,4.55-1.12,7.31,7.31,0,0,0,3.09-3v-7.32h-4.17q-8.38,0-8.92,5.9l0,.67a4.6,4.6,0,0,0,1.47,3.51A5.63,5.63,0,0,0,867,717.24Z" transform="translate(-205.33 -460.42)"/><path class="cls-1" d="M907.74,672.1v10.47h7.14v8.34h-7.14v21.26a5.09,5.09,0,0,0,.89,3.38q.89,1,3.39,1a17.93,17.93,0,0,0,3.29-.27v8.62a22.65,22.65,0,0,1-6.76,1q-11.74,0-12-12.08v-23h-6.11v-8.34h6.11V672.1Z" transform="translate(-205.33 -460.42)"/><path class="cls-1" d="M921,671.55a5.68,5.68,0,0,1,1.68-4.22,7.15,7.15,0,0,1,9.14,0,6.1,6.1,0,0,1,0,8.47,7.07,7.07,0,0,1-9.08,0A5.66,5.66,0,0,1,921,671.55Zm11.86,53.61h-11.2V682.57h11.2Z" transform="translate(-205.33 -460.42)"/><path class="cls-1" d="M940.33,703.47a25.62,25.62,0,0,1,2.4-11.3,17.71,17.71,0,0,1,6.89-7.67,19.83,19.83,0,0,1,10.45-2.72q8.46,0,13.8,5.27t6,14.33l.08,2.91q0,9.81-5.37,15.73t-14.41,5.92q-9,0-14.42-5.9T940.33,704Zm11.16.81c0,4,.75,7.14,2.24,9.28a8,8,0,0,0,12.75,0q2.28-3.18,2.28-10.15,0-6-2.28-9.23a7.37,7.37,0,0,0-6.41-3.27,7.28,7.28,0,0,0-6.34,3.25Q951.5,697.46,951.49,704.28Z" transform="translate(-205.33 -460.42)"/><path class="cls-1" d="M997.06,682.57l.35,4.92a14.48,14.48,0,0,1,12-5.71q6.65,0,9.89,4t3.32,11.89v27.52h-11.16V697.92q0-3.63-1.55-5.26t-5.13-1.63a7.65,7.65,0,0,0-7.07,4.09v30H986.56V682.57Z" transform="translate(-205.33 -460.42)"/><path class="cls-1" d="M1063.1,705v20.2h-11.58V667.85h21.93a24.85,24.85,0,0,1,11.14,2.36,17.12,17.12,0,0,1,7.4,6.71,19,19,0,0,1,2.59,9.9q0,8.41-5.66,13.28T1073.26,705Zm0-9.56h10.35c3.07,0,5.4-.74,7-2.21a8.08,8.08,0,0,0,2.42-6.29,9.52,9.52,0,0,0-2.44-6.81,9,9,0,0,0-6.72-2.68H1063.1Z" transform="translate(-205.33 -460.42)"/><path class="cls-1" d="M1113.58,725.16h-11.2V664.7h11.2Z" transform="translate(-205.33 -460.42)"/><path class="cls-1" d="M1147,725.16a13.31,13.31,0,0,1-1.12-3.82,13.37,13.37,0,0,1-10.54,4.6,14.61,14.61,0,0,1-10.17-3.62,11.71,11.71,0,0,1-4-9.13q0-6.77,4.92-10.39t14.23-3.66h5.14V696.7a7.08,7.08,0,0,0-1.49-4.73,5.78,5.78,0,0,0-4.69-1.77,6.55,6.55,0,0,0-4.42,1.38,4.72,4.72,0,0,0-1.6,3.78H1122a11.52,11.52,0,0,1,2.24-6.85,14.85,14.85,0,0,1,6.33-4.94,22.76,22.76,0,0,1,9.19-1.79q7.73,0,12.26,4t4.54,11.12v18.45c0,4.05.58,7.1,1.66,9.18v.67Zm-9.23-7.92a9.45,9.45,0,0,0,4.56-1.12,7.31,7.31,0,0,0,3.09-3v-7.32h-4.17q-8.38,0-8.92,5.9l0,.67a4.6,4.6,0,0,0,1.47,3.51A5.61,5.61,0,0,0,1137.75,717.24Z" transform="translate(-205.33 -460.42)"/><path class="cls-1" d="M1178.54,672.1v10.47h7.14v8.34h-7.14v21.26a5.15,5.15,0,0,0,.88,3.38c.6.68,1.73,1,3.4,1a17.93,17.93,0,0,0,3.29-.27v8.62a22.65,22.65,0,0,1-6.76,1q-11.74,0-12-12.08v-23h-6.11v-8.34h6.11V672.1Z" transform="translate(-205.33 -460.42)"/><path class="cls-1" d="M1195,725.16V690.91h-6.22v-8.34H1195V679q0-7.17,4-11.12t11.3-4a25.33,25.33,0,0,1,5.68.79l-.12,8.81a14.27,14.27,0,0,0-3.4-.35q-6.29,0-6.29,6v3.43h8.3v8.34h-8.3v34.25Z" transform="translate(-205.33 -460.42)"/><path class="cls-1" d="M1218.51,703.47a25.62,25.62,0,0,1,2.39-11.3,17.77,17.77,0,0,1,6.89-7.67,19.85,19.85,0,0,1,10.45-2.72q8.46,0,13.81,5.27t6,14.33l.08,2.91q0,9.81-5.37,15.73t-14.4,5.92q-9,0-14.43-5.9T1218.51,704Zm11.16.81c0,4,.74,7.14,2.24,9.28a8,8,0,0,0,12.74,0q2.28-3.18,2.28-10.15,0-6-2.28-9.23a7.36,7.36,0,0,0-6.41-3.27,7.25,7.25,0,0,0-6.33,3.25Q1229.66,697.46,1229.67,704.28Z" transform="translate(-205.33 -460.42)"/><path class="cls-1" d="M1288.45,693.23a29.71,29.71,0,0,0-4-.31q-6.33,0-8.3,4.37v27.87H1265V682.57h10.54l.31,5.07q3.36-5.86,9.31-5.86a11.51,11.51,0,0,1,3.47.51Z" transform="translate(-205.33 -460.42)"/><path class="cls-1" d="M1304.28,682.57l.35,4.76a14.57,14.57,0,0,1,12-5.55q8.07,0,11.08,6.49a14.27,14.27,0,0,1,12.55-6.49q6.8,0,10.12,4t3.32,12.15v27.2h-11.2V698c0-2.42-.46-4.18-1.39-5.3s-2.56-1.67-4.9-1.67a7,7,0,0,0-7,4.88l0,29.25h-11.16V698c0-2.47-.48-4.25-1.43-5.36s-2.58-1.65-4.87-1.65a7.2,7.2,0,0,0-6.87,4v30.12h-11.16V682.57Z" transform="translate(-205.33 -460.42)"/></svg>