<?xml version="1.0" standalone="no"?>
<!DOCTYPE svg PUBLIC "-//W3C//DTD SVG 20010904//EN"
 "http://www.w3.org/TR/2001/REC-SVG-20010904/DTD/svg10.dtd">
<svg version="1.0" xmlns="http://www.w3.org/2000/svg"
 width="256.000000pt" height="256.000000pt" viewBox="0 0 256.000000 256.000000"
 preserveAspectRatio="xMidYMid meet">
<metadata>
Created by potrace 1.11, written by Peter Selinger 2001-2013
</metadata>
<g transform="translate(0.000000,256.000000) scale(0.100000,-0.100000)"
fill="#000000" stroke="none">
<path d="M1135 2464 c-139 -34 -292 -137 -379 -257 -50 -69 -103 -202 -111
-282 -2 -16 -4 -150 -4 -297 l-1 -268 -95 0 c-91 0 -97 -1 -121 -27 l-25 -27
2 -298 c1 -257 4 -308 20 -372 38 -149 108 -266 217 -366 78 -72 156 -118 267
-157 l80 -28 295 0 295 0 87 31 c149 53 260 133 352 253 53 69 78 117 113 218
26 77 27 81 31 398 5 394 14 368 -137 373 l-101 4 -1 266 c-1 310 -2 320 -29
404 -67 199 -218 350 -420 418 -83 28 -248 35 -335 14z m285 -164 c111 -34
225 -127 279 -230 54 -100 59 -139 60 -437 l2 -273 -481 0 -480 0 0 268 c0
295 6 340 61 441 61 114 155 189 289 232 65 21 199 20 270 -1z"/>
</g>
</svg>
